<?xml version="1.0" encoding="UTF-8"?> <svg xmlns="http://www.w3.org/2000/svg" width="183" height="62" viewBox="0 0 183 62" fill="none"><path d="M19.248 22.68C19.696 22.664 20.04 22.592 20.28 22.464C20.52 22.32 20.688 22.08 20.784 21.744C20.88 21.392 20.928 20.912 20.928 20.304V10.728C20.928 10.328 20.936 9.944 20.952 9.576C20.984 9.208 21.008 8.92 21.024 8.712C20.752 8.728 20.44 8.744 20.088 8.76C19.736 8.76 19.456 8.768 19.248 8.784V7.2C20.288 7.184 21.336 7.176 22.392 7.176C23.448 7.176 24.504 7.168 25.56 7.152C27.016 7.136 28.272 7.32 29.328 7.704C30.384 8.072 31.192 8.64 31.752 9.408C32.312 10.16 32.592 11.136 32.592 12.336C32.592 12.976 32.456 13.616 32.184 14.256C31.928 14.88 31.512 15.464 30.936 16.008C30.376 16.536 29.632 16.968 28.704 17.304C27.792 17.64 26.688 17.824 25.392 17.856C25.136 17.856 24.888 17.856 24.648 17.856C24.408 17.856 24.176 17.848 23.952 17.832V20.4C23.952 20.848 23.944 21.256 23.928 21.624C23.912 21.992 23.888 22.28 23.856 22.488C24.064 22.472 24.296 22.464 24.552 22.464C24.808 22.448 25.064 22.44 25.32 22.44C25.592 22.424 25.8 22.416 25.944 22.416V24H19.248V22.68ZM23.952 16.32C24.16 16.336 24.36 16.352 24.552 16.368C24.744 16.384 24.952 16.392 25.176 16.392C26.072 16.392 26.824 16.232 27.432 15.912C28.056 15.592 28.528 15.136 28.848 14.544C29.168 13.936 29.328 13.2 29.328 12.336C29.328 11.552 29.216 10.912 28.992 10.416C28.768 9.92 28.472 9.544 28.104 9.288C27.736 9.016 27.328 8.832 26.88 8.736C26.432 8.64 25.984 8.592 25.536 8.592C25.12 8.592 24.792 8.656 24.552 8.784C24.328 8.912 24.168 9.144 24.072 9.48C23.992 9.8 23.952 10.24 23.952 10.8V16.32ZM35.5663 11.52C35.5663 10.192 35.7663 9.112 36.1663 8.28C36.5663 7.448 37.1103 6.832 37.7983 6.432C38.5023 6.032 39.3263 5.832 40.2703 5.832C40.8783 5.832 41.4143 5.88 41.8783 5.976C42.3423 6.056 42.7743 6.144 43.1743 6.24C43.5743 6.32 43.9583 6.36 44.3263 6.36C44.6143 6.36 44.8703 6.32 45.0943 6.24C45.3183 6.16 45.5343 6.04 45.7423 5.88H46.8463V20.568C46.8463 20.824 46.8383 21.136 46.8223 21.504C46.8063 21.856 46.7823 22.2 46.7503 22.536C47.0063 22.504 47.2783 22.488 47.5663 22.488C47.8543 22.472 48.0943 22.464 48.2863 22.464V24H42.4783V22.728C42.9423 22.728 43.2703 22.632 43.4623 22.44C43.6543 22.232 43.7743 21.944 43.8223 21.576C43.8703 21.208 43.8943 20.792 43.8943 20.328V8.208C43.5583 8.016 43.2303 7.864 42.9103 7.752C42.5903 7.624 42.2623 7.536 41.9263 7.488C41.5903 7.424 41.2303 7.392 40.8463 7.392C40.2543 7.392 39.7823 7.52 39.4303 7.776C39.0783 8.032 38.8303 8.376 38.6863 8.808C38.5583 9.24 38.4943 9.72 38.4943 10.248V12H41.3503V13.536L38.4943 13.608L38.5183 20.544C38.5183 20.8 38.5103 21.112 38.4943 21.48C38.4943 21.848 38.4703 22.2 38.4223 22.536C38.6943 22.504 38.9823 22.488 39.2863 22.488C39.6063 22.472 39.8623 22.464 40.0543 22.464V24H34.1503V22.728C34.6143 22.728 34.9423 22.632 35.1343 22.44C35.3423 22.232 35.4703 21.944 35.5183 21.576C35.5663 21.208 35.5903 20.792 35.5903 20.328L35.5663 13.656L33.7423 13.68V12H35.5663V11.52ZM55.7049 24.384C54.5529 24.384 53.5289 24.128 52.6329 23.616C51.7369 23.088 51.0409 22.352 50.5449 21.408C50.0489 20.448 49.8009 19.32 49.8009 18.024C49.8009 16.904 50.0489 15.856 50.5449 14.88C51.0409 13.904 51.7369 13.12 52.6329 12.528C53.5449 11.92 54.6009 11.616 55.8009 11.616C56.4729 11.616 57.1209 11.712 57.7449 11.904C58.3689 12.096 58.9289 12.416 59.4249 12.864C59.9209 13.312 60.3129 13.904 60.6009 14.64C60.9049 15.376 61.0489 16.272 61.0329 17.328L52.9689 17.472C52.9689 18.464 53.0809 19.344 53.3049 20.112C53.5449 20.864 53.9289 21.464 54.4569 21.912C54.9849 22.344 55.6809 22.56 56.5449 22.56C56.9289 22.56 57.3369 22.496 57.7689 22.368C58.2169 22.224 58.6569 22.016 59.0889 21.744C59.5209 21.456 59.9049 21.104 60.2409 20.688L61.1529 21.528C60.6249 22.296 60.0409 22.888 59.4009 23.304C58.7609 23.72 58.1209 24 57.4809 24.144C56.8409 24.304 56.2489 24.384 55.7049 24.384ZM53.0889 16.032H58.0809C58.0649 15.392 57.9689 14.856 57.7929 14.424C57.6329 13.976 57.3929 13.64 57.0729 13.416C56.7529 13.176 56.3609 13.056 55.8969 13.056C55.1129 13.056 54.4809 13.32 54.0009 13.848C53.5369 14.36 53.2329 15.088 53.0889 16.032ZM68.2824 30.504C66.8744 30.504 65.7544 30.352 64.9224 30.048C64.1064 29.744 63.5144 29.344 63.1464 28.848C62.7944 28.368 62.6184 27.864 62.6184 27.336C62.6184 26.936 62.7064 26.56 62.8824 26.208C63.0584 25.872 63.3144 25.552 63.6504 25.248C63.9864 24.944 64.3944 24.704 64.8744 24.528C64.2664 24.352 63.8264 24.088 63.5544 23.736C63.2824 23.368 63.1464 22.952 63.1464 22.488C63.1464 22.024 63.3304 21.536 63.6984 21.024C64.0824 20.512 64.6824 20.152 65.4984 19.944C64.8104 19.64 64.2424 19.192 63.7944 18.6C63.3624 18.008 63.1384 17.304 63.1224 16.488C63.1064 15.528 63.3464 14.68 63.8424 13.944C64.3544 13.208 65.0184 12.64 65.8344 12.24C66.6504 11.824 67.4984 11.616 68.3784 11.616C68.8264 11.616 69.3224 11.68 69.8664 11.808C70.4104 11.936 70.8904 12.136 71.3064 12.408C71.4664 11.928 71.6904 11.488 71.9784 11.088C72.2664 10.672 72.6024 10.336 72.9864 10.08C73.3864 9.824 73.8264 9.696 74.3064 9.696C74.8024 9.696 75.1784 9.824 75.4344 10.08C75.6904 10.336 75.8184 10.68 75.8184 11.112C75.8184 11.288 75.7784 11.48 75.6984 11.688C75.6184 11.896 75.4824 12.072 75.2904 12.216C75.0984 12.36 74.8344 12.432 74.4984 12.432C74.2424 12.432 74.0024 12.344 73.7784 12.168C73.5704 11.992 73.4424 11.776 73.3944 11.52C73.1224 11.584 72.8744 11.784 72.6504 12.12C72.4424 12.456 72.3144 12.776 72.2664 13.08C72.6984 13.464 73.0344 13.92 73.2744 14.448C73.5144 14.96 73.6344 15.512 73.6344 16.104C73.6344 17.016 73.3784 17.832 72.8664 18.552C72.3704 19.256 71.7144 19.808 70.8984 20.208C70.0984 20.608 69.2344 20.808 68.3064 20.808C68.0664 20.808 67.8264 20.8 67.5864 20.784C67.3464 20.752 67.0904 20.736 66.8184 20.736C66.3864 20.736 66.0264 20.824 65.7384 21C65.4664 21.176 65.3464 21.408 65.3784 21.696C65.4264 22.032 65.7144 22.256 66.2424 22.368C66.7704 22.464 67.5864 22.544 68.6904 22.608C69.9224 22.672 70.9944 22.824 71.9064 23.064C72.8184 23.304 73.5224 23.68 74.0184 24.192C74.5144 24.72 74.7624 25.44 74.7624 26.352C74.7624 27.024 74.5704 27.616 74.1864 28.128C73.8024 28.64 73.2904 29.072 72.6504 29.424C72.0264 29.776 71.3304 30.04 70.5624 30.216C69.8104 30.408 69.0504 30.504 68.2824 30.504ZM68.7384 29.088C69.9544 29.088 70.8824 28.864 71.5224 28.416C72.1624 27.968 72.4824 27.48 72.4824 26.952C72.4824 26.536 72.3304 26.2 72.0264 25.944C71.7224 25.704 71.2904 25.52 70.7304 25.392C70.1704 25.264 69.4744 25.184 68.6424 25.152C68.2744 25.136 67.8664 25.112 67.4184 25.08C66.9704 25.064 66.5624 25.024 66.1944 24.96C65.8904 25.184 65.6504 25.464 65.4744 25.8C65.3144 26.136 65.2344 26.472 65.2344 26.808C65.2024 27.496 65.5064 28.048 66.1464 28.464C66.7864 28.88 67.6504 29.088 68.7384 29.088ZM68.4024 19.464C68.8824 19.464 69.2824 19.328 69.6024 19.056C69.9384 18.768 70.1864 18.408 70.3464 17.976C70.5224 17.528 70.6104 17.056 70.6104 16.56C70.6104 15.952 70.5304 15.376 70.3704 14.832C70.2104 14.272 69.9624 13.824 69.6264 13.488C69.2904 13.136 68.8664 12.96 68.3544 12.96C67.6344 12.96 67.0744 13.264 66.6744 13.872C66.2904 14.464 66.0984 15.168 66.0984 15.984C66.0984 16.608 66.1864 17.192 66.3624 17.736C66.5544 18.264 66.8184 18.688 67.1544 19.008C67.5064 19.312 67.9224 19.464 68.4024 19.464ZM81.8378 24.384C80.6858 24.384 79.6618 24.128 78.7658 23.616C77.8698 23.088 77.1738 22.352 76.6777 21.408C76.1817 20.448 75.9338 19.32 75.9338 18.024C75.9338 16.904 76.1817 15.856 76.6777 14.88C77.1738 13.904 77.8698 13.12 78.7658 12.528C79.6778 11.92 80.7338 11.616 81.9338 11.616C82.6058 11.616 83.2538 11.712 83.8778 11.904C84.5018 12.096 85.0618 12.416 85.5578 12.864C86.0538 13.312 86.4458 13.904 86.7338 14.64C87.0378 15.376 87.1818 16.272 87.1658 17.328L79.1018 17.472C79.1018 18.464 79.2138 19.344 79.4378 20.112C79.6778 20.864 80.0618 21.464 80.5898 21.912C81.1178 22.344 81.8138 22.56 82.6778 22.56C83.0618 22.56 83.4698 22.496 83.9018 22.368C84.3498 22.224 84.7898 22.016 85.2218 21.744C85.6538 21.456 86.0378 21.104 86.3738 20.688L87.2858 21.528C86.7578 22.296 86.1738 22.888 85.5338 23.304C84.8938 23.72 84.2538 24 83.6138 24.144C82.9738 24.304 82.3818 24.384 81.8378 24.384ZM79.2218 16.032H84.2138C84.1978 15.392 84.1018 14.856 83.9258 14.424C83.7658 13.976 83.5258 13.64 83.2058 13.416C82.8858 13.176 82.4938 13.056 82.0298 13.056C81.2458 13.056 80.6138 13.32 80.1338 13.848C79.6698 14.36 79.3658 15.088 79.2218 16.032ZM93.4804 24.072L89.8084 15.912C89.6164 15.448 89.4724 15.072 89.3764 14.784C89.2804 14.496 89.2084 14.256 89.1604 14.064C89.1284 13.872 89.0964 13.68 89.0644 13.488L88.1284 13.536V12H93.3364V13.272C92.9524 13.272 92.6964 13.376 92.5684 13.584C92.4564 13.776 92.4244 14.04 92.4724 14.376C92.5364 14.696 92.6404 15.04 92.7844 15.408L94.2244 18.864C94.3524 19.152 94.4804 19.456 94.6084 19.776C94.7364 20.08 94.8564 20.392 94.9684 20.712H94.9924C95.1044 20.408 95.2164 20.104 95.3284 19.8C95.4564 19.48 95.5684 19.16 95.6644 18.84L96.9844 15.144C97.1284 14.744 97.2644 14.416 97.3924 14.16C97.5204 13.904 97.6404 13.672 97.7524 13.464L96.2644 13.536V12H100.56V13.272C100.192 13.304 99.8724 13.48 99.6004 13.8C99.3284 14.104 99.0884 14.48 98.8804 14.928C98.6724 15.36 98.4804 15.808 98.3044 16.272L95.2084 24.072H93.4804ZM107.15 24.384C105.998 24.384 104.974 24.128 104.078 23.616C103.182 23.088 102.486 22.352 101.99 21.408C101.494 20.448 101.246 19.32 101.246 18.024C101.246 16.904 101.494 15.856 101.99 14.88C102.486 13.904 103.182 13.12 104.078 12.528C104.99 11.92 106.046 11.616 107.246 11.616C107.918 11.616 108.566 11.712 109.19 11.904C109.814 12.096 110.374 12.416 110.87 12.864C111.366 13.312 111.758 13.904 112.046 14.64C112.35 15.376 112.494 16.272 112.478 17.328L104.414 17.472C104.414 18.464 104.526 19.344 104.75 20.112C104.99 20.864 105.374 21.464 105.902 21.912C106.43 22.344 107.126 22.56 107.99 22.56C108.374 22.56 108.782 22.496 109.214 22.368C109.662 22.224 110.102 22.016 110.534 21.744C110.966 21.456 111.35 21.104 111.686 20.688L112.598 21.528C112.07 22.296 111.486 22.888 110.846 23.304C110.206 23.72 109.566 24 108.926 24.144C108.286 24.304 107.694 24.384 107.15 24.384ZM104.534 16.032H109.526C109.51 15.392 109.414 14.856 109.238 14.424C109.078 13.976 108.838 13.64 108.518 13.416C108.198 13.176 107.806 13.056 107.342 13.056C106.558 13.056 105.926 13.32 105.446 13.848C104.982 14.36 104.678 15.088 104.534 16.032ZM114.352 22.728C114.816 22.728 115.144 22.632 115.336 22.44C115.528 22.232 115.648 21.944 115.696 21.576C115.744 21.208 115.768 20.792 115.768 20.328V15.816C115.768 15.528 115.776 15.224 115.792 14.904C115.808 14.584 115.832 14.256 115.864 13.92C115.592 13.936 115.296 13.952 114.976 13.968C114.656 13.968 114.392 13.976 114.184 13.992V12.456H115.072C115.712 12.456 116.248 12.384 116.68 12.24C117.112 12.08 117.416 11.92 117.592 11.76H118.6C118.632 11.952 118.656 12.256 118.672 12.672C118.688 13.088 118.696 13.504 118.696 13.92C119.064 13.44 119.448 13.032 119.848 12.696C120.248 12.344 120.656 12.08 121.072 11.904C121.504 11.712 121.944 11.616 122.392 11.616C122.904 11.616 123.352 11.76 123.736 12.048C124.136 12.336 124.336 12.8 124.336 13.44C124.336 13.648 124.28 13.872 124.168 14.112C124.072 14.352 123.912 14.552 123.688 14.712C123.48 14.872 123.192 14.952 122.824 14.952C122.488 14.952 122.168 14.848 121.864 14.64C121.576 14.416 121.424 14.064 121.408 13.584C121.072 13.568 120.72 13.688 120.352 13.944C120 14.2 119.68 14.512 119.392 14.88C119.104 15.248 118.88 15.624 118.72 16.008L118.744 20.568C118.744 20.824 118.736 21.136 118.72 21.504C118.704 21.856 118.68 22.2 118.648 22.536C118.904 22.504 119.176 22.488 119.464 22.488C119.752 22.472 119.992 22.464 120.184 22.464V24H114.352V22.728ZM126.014 9.96C126.014 9.688 126.014 9.392 126.014 9.072C126.03 8.736 126.054 8.392 126.086 8.04C125.83 8.056 125.534 8.072 125.198 8.088C124.878 8.104 124.614 8.12 124.406 8.136V6.576C125.142 6.576 125.742 6.544 126.206 6.48C126.67 6.4 127.03 6.304 127.286 6.192C127.558 6.08 127.75 5.976 127.862 5.88H128.966V12.96C129.478 12.48 130.022 12.136 130.598 11.928C131.174 11.72 131.75 11.616 132.326 11.616C133.318 11.616 134.19 11.864 134.942 12.36C135.71 12.856 136.31 13.56 136.742 14.472C137.174 15.384 137.39 16.456 137.39 17.688C137.39 19 137.134 20.16 136.622 21.168C136.11 22.176 135.406 22.968 134.51 23.544C133.614 24.104 132.582 24.384 131.414 24.384C130.95 24.384 130.382 24.288 129.71 24.096C129.054 23.904 128.454 23.52 127.91 22.944L127.238 24H126.014V9.96ZM128.966 20.352C128.966 20.992 129.07 21.496 129.278 21.864C129.486 22.232 129.75 22.496 130.07 22.656C130.406 22.8 130.742 22.88 131.078 22.896C131.814 22.896 132.406 22.68 132.854 22.248C133.318 21.816 133.654 21.24 133.862 20.52C134.086 19.784 134.198 18.992 134.198 18.144C134.198 17.28 134.094 16.496 133.886 15.792C133.678 15.072 133.358 14.504 132.926 14.088C132.494 13.656 131.926 13.44 131.222 13.44C130.79 13.456 130.374 13.568 129.974 13.776C129.574 13.984 129.238 14.256 128.966 14.592V20.352ZM144.234 24.384C143.306 24.384 142.546 24.208 141.954 23.856C141.378 23.504 140.954 22.944 140.682 22.176C140.41 21.392 140.274 20.368 140.274 19.104V15.84C140.274 15.568 140.282 15.264 140.298 14.928C140.314 14.592 140.33 14.256 140.346 13.92C140.09 13.936 139.802 13.952 139.482 13.968C139.162 13.968 138.898 13.976 138.69 13.992V12.456H139.098C139.978 12.456 140.658 12.384 141.138 12.24C141.634 12.08 141.97 11.92 142.146 11.76H143.25V19.104C143.25 20.256 143.402 21.112 143.706 21.672C144.026 22.232 144.538 22.512 145.242 22.512C145.722 22.496 146.194 22.352 146.658 22.08C147.138 21.808 147.522 21.488 147.81 21.12V15.936C147.81 15.616 147.818 15.288 147.834 14.952C147.85 14.6 147.874 14.256 147.906 13.92C147.65 13.936 147.354 13.952 147.018 13.968C146.698 13.968 146.434 13.976 146.226 13.992V12.456H146.85C147.586 12.456 148.194 12.376 148.674 12.216C149.17 12.056 149.498 11.904 149.658 11.76H150.762V20.376C150.762 20.6 150.754 20.928 150.738 21.36C150.722 21.792 150.698 22.184 150.666 22.536C150.938 22.504 151.226 22.488 151.53 22.488C151.834 22.472 152.082 22.456 152.274 22.44V24H148.098C148.066 23.776 148.034 23.552 148.002 23.328C147.986 23.104 147.97 22.888 147.954 22.68C147.458 23.128 146.898 23.528 146.274 23.88C145.666 24.216 144.986 24.384 144.234 24.384ZM153.914 24V22.728C154.378 22.728 154.706 22.632 154.898 22.44C155.09 22.232 155.21 21.944 155.258 21.576C155.306 21.208 155.33 20.792 155.33 20.328V15.816C155.33 15.528 155.338 15.224 155.354 14.904C155.37 14.584 155.394 14.256 155.426 13.92C155.17 13.936 154.874 13.952 154.538 13.968C154.218 13.984 153.954 14 153.746 14.016V12.456C154.466 12.456 155.058 12.424 155.522 12.36C155.986 12.28 156.346 12.184 156.602 12.072C156.858 11.96 157.042 11.856 157.154 11.76H158.162C158.194 11.936 158.21 12.08 158.21 12.192C158.21 12.304 158.218 12.424 158.234 12.552C158.25 12.664 158.274 12.832 158.306 13.056C158.626 12.784 158.994 12.544 159.41 12.336C159.842 12.112 160.274 11.936 160.706 11.808C161.138 11.68 161.538 11.616 161.906 11.616C163.346 11.616 164.378 12.04 165.002 12.888C165.626 13.736 165.938 15.088 165.938 16.944V20.568C165.938 20.824 165.93 21.136 165.914 21.504C165.914 21.856 165.89 22.2 165.842 22.536C166.114 22.504 166.394 22.488 166.682 22.488C166.97 22.472 167.21 22.464 167.402 22.464V24H161.57V22.728C162.034 22.728 162.362 22.632 162.554 22.44C162.762 22.232 162.89 21.944 162.938 21.576C162.986 21.208 163.01 20.792 163.01 20.328L162.986 16.92C162.986 15.768 162.81 14.912 162.458 14.352C162.122 13.776 161.562 13.488 160.778 13.488C160.314 13.504 159.858 13.616 159.41 13.824C158.962 14.032 158.586 14.296 158.282 14.616C158.298 14.808 158.306 15.008 158.306 15.216C158.306 15.424 158.306 15.632 158.306 15.84L158.282 20.568C158.282 20.824 158.274 21.136 158.258 21.504C158.258 21.856 158.234 22.2 158.186 22.536C158.442 22.504 158.714 22.488 159.002 22.488C159.306 22.472 159.554 22.464 159.746 22.464V24H153.914ZM173.738 24.384C172.778 24.384 171.922 24.136 171.17 23.64C170.418 23.144 169.826 22.44 169.394 21.528C168.978 20.616 168.77 19.544 168.77 18.312C168.77 17.016 169.026 15.864 169.538 14.856C170.05 13.848 170.754 13.056 171.65 12.48C172.562 11.904 173.61 11.616 174.794 11.616C175.258 11.616 175.69 11.672 176.09 11.784C176.506 11.88 176.866 11.992 177.17 12.12V9.984C177.17 9.744 177.17 9.448 177.17 9.096C177.186 8.744 177.21 8.392 177.242 8.04C176.986 8.056 176.69 8.072 176.354 8.088C176.034 8.104 175.762 8.12 175.538 8.136V6.576C176.274 6.576 176.874 6.544 177.338 6.48C177.802 6.4 178.162 6.304 178.418 6.192C178.69 6.08 178.882 5.976 178.994 5.88H180.098V20.568C180.098 20.808 180.09 21.112 180.074 21.48C180.058 21.832 180.034 22.184 180.002 22.536C180.274 22.504 180.554 22.488 180.842 22.488C181.146 22.472 181.402 22.456 181.61 22.44V24H177.434C177.402 23.808 177.37 23.616 177.338 23.424C177.322 23.216 177.298 23.024 177.266 22.848C176.77 23.376 176.226 23.76 175.634 24C175.042 24.256 174.41 24.384 173.738 24.384ZM174.866 22.536C175.314 22.536 175.746 22.416 176.162 22.176C176.578 21.92 176.914 21.608 177.17 21.24C177.154 21.016 177.146 20.792 177.146 20.568C177.146 20.328 177.146 20.088 177.146 19.848L177.17 13.704C176.93 13.512 176.626 13.368 176.258 13.272C175.89 13.16 175.514 13.104 175.13 13.104C174.378 13.12 173.762 13.36 173.282 13.824C172.818 14.272 172.474 14.864 172.25 15.6C172.042 16.336 171.946 17.136 171.962 18C171.962 18.784 172.066 19.52 172.274 20.208C172.482 20.896 172.794 21.456 173.21 21.888C173.642 22.32 174.194 22.536 174.866 22.536Z" fill="black"></path><rect y="1" width="5" height="20.3333" fill="black"></rect><rect y="21.3334" width="5" height="20.3333" fill="#EA3323"></rect><rect y="41.6666" width="5" height="20.3333" fill="#F7CE46"></rect></svg> 