<?xml version="1.0" encoding="UTF-8"?>
<svg xmlns="http://www.w3.org/2000/svg" version="1.1" viewBox="0 0 64 64">
  <defs>
    <style>
      .cls-1 {
        fill: none;
        stroke: #3e9b31;
        stroke-linecap: round;
        stroke-linejoin: round;
        stroke-width: 4px;
      }

      .cls-2 {
        fill: #cbefc7;
      }

      .cls-3 {
        fill: #3e9b31;
      }
    </style>
  </defs>
  <!-- Generator: Adobe Illustrator 28.6.0, SVG Export Plug-In . SVG Version: 1.2.0 Build 709)  -->
  <g>
    <g id="Ebene_14">
      <g>
        <path class="cls-2" d="M32,62.5c-16.82,0-30.5-13.68-30.5-30.5S15.18,1.5,32,1.5s30.5,13.68,30.5,30.5-13.68,30.5-30.5,30.5Z"/>
        <path class="cls-3" d="M32,3c15.99,0,29,13.01,29,29s-13.01,29-29,29S3,47.99,3,32,16.01,3,32,3M32,0C14.33,0,0,14.33,0,32s14.33,32,32,32,32-14.33,32-32S49.67,0,32,0h0Z"/>
      </g>
      <polyline class="cls-1" points="15.15 29.6 28.88 43.33 48.85 23.36"/>
    </g>
  </g>
</svg>