<?xml version="1.0" encoding="UTF-8"?>
<svg id="Ebene_1" xmlns="http://www.w3.org/2000/svg" version="1.1" viewBox="0 0 183 62">
  <!-- Generator: Adobe Illustrator 29.1.0, SVG Export Plug-In . SVG Version: 2.1.0 Build 142)  -->
  <defs>
    <style>
      .st0 {
        fill: #ea3323;
      }

      .st1 {
        fill: #fff;
      }

      .st2 {
        fill: #f7ce46;
      }
    </style>
  </defs>
  <path class="st1" d="M19.2,22.7c.4,0,.8,0,1-.2.2-.1.4-.4.5-.7,0-.4.1-.8.1-1.4v-9.6c0-.4,0-.8,0-1.2,0-.4,0-.7,0-.9-.3,0-.6,0-.9,0-.4,0-.6,0-.8,0v-1.6c1,0,2.1,0,3.1,0s2.1,0,3.2,0c1.5,0,2.7.2,3.8.6,1.1.4,1.9.9,2.4,1.7.6.8.8,1.7.8,2.9s-.1,1.3-.4,1.9c-.3.6-.7,1.2-1.2,1.8-.6.5-1.3,1-2.2,1.3-.9.3-2,.5-3.3.6h-.7c-.2,0-.5,0-.7,0v2.6c0,.4,0,.9,0,1.2,0,.4,0,.7,0,.9.2,0,.4,0,.7,0,.3,0,.5,0,.8,0,.3,0,.5,0,.6,0v1.6h-6.7v-1.3ZM24,16.3c.2,0,.4,0,.6,0s.4,0,.6,0c.9,0,1.6-.2,2.3-.5.6-.3,1.1-.8,1.4-1.4.3-.6.5-1.3.5-2.2s-.1-1.4-.3-1.9c-.2-.5-.5-.9-.9-1.1-.4-.3-.8-.5-1.2-.6s-.9-.1-1.3-.1-.7,0-1,.2c-.2.1-.4.4-.5.7,0,.3-.1.8-.1,1.3v5.5ZM35.6,11.5c0-1.3.2-2.4.6-3.2.4-.8.9-1.4,1.6-1.8.7-.4,1.5-.6,2.5-.6s1.1,0,1.6.1c.5,0,.9.2,1.3.3.4,0,.8.1,1.2.1s.5,0,.8-.1c.2,0,.4-.2.6-.4h1.1v14.7c0,.3,0,.6,0,.9,0,.4,0,.7,0,1,.3,0,.5,0,.8,0,.3,0,.5,0,.7,0v1.5h-5.8v-1.3c.5,0,.8,0,1-.3.2-.2.3-.5.4-.9s0-.8,0-1.2v-12.1c-.3-.2-.7-.3-1-.5-.3-.1-.6-.2-1-.3-.3,0-.7,0-1.1,0-.6,0-1.1.1-1.4.4-.4.3-.6.6-.7,1-.1.4-.2.9-.2,1.4v1.8h2.9v1.5h-2.9c0,0,0,7,0,7,0,.3,0,.6,0,.9,0,.4,0,.7,0,1.1.3,0,.6,0,.9,0,.3,0,.6,0,.8,0v1.5h-5.9v-1.3c.5,0,.8,0,1-.3.2-.2.3-.5.4-.9s0-.8,0-1.2v-6.7s-1.8,0-1.8,0v-1.7h1.8v-.5ZM55.7,24.4c-1.2,0-2.2-.3-3.1-.8-.9-.5-1.6-1.3-2.1-2.2-.5-1-.7-2.1-.7-3.4s.2-2.2.7-3.1c.5-1,1.2-1.8,2.1-2.4.9-.6,2-.9,3.2-.9s1.3,0,1.9.3c.6.2,1.2.5,1.7,1s.9,1,1.2,1.8c.3.7.4,1.6.4,2.7h-8.1c0,1.1.1,2,.3,2.8.2.8.6,1.4,1.2,1.8.5.4,1.2.6,2.1.6s.8,0,1.2-.2c.4-.1.9-.4,1.3-.6.4-.3.8-.6,1.2-1.1l.9.8c-.5.8-1.1,1.4-1.8,1.8-.6.4-1.3.7-1.9.8-.6.2-1.2.2-1.8.2ZM53.1,16h5c0-.6-.1-1.2-.3-1.6-.2-.4-.4-.8-.7-1-.3-.2-.7-.4-1.2-.4-.8,0-1.4.3-1.9.8-.5.5-.8,1.2-.9,2.2ZM68.3,30.5c-1.4,0-2.5-.2-3.4-.5-.8-.3-1.4-.7-1.8-1.2-.4-.5-.5-1-.5-1.5s0-.8.3-1.1c.2-.3.4-.7.8-1,.3-.3.7-.5,1.2-.7-.6-.2-1-.4-1.3-.8-.3-.4-.4-.8-.4-1.2s.2-1,.6-1.5c.4-.5,1-.9,1.8-1.1-.7-.3-1.3-.8-1.7-1.3-.4-.6-.7-1.3-.7-2.1,0-1,.2-1.8.7-2.5.5-.7,1.2-1.3,2-1.7.8-.4,1.7-.6,2.5-.6s.9,0,1.5.2c.5.1,1,.3,1.4.6.2-.5.4-.9.7-1.3.3-.4.6-.8,1-1,.4-.3.8-.4,1.3-.4s.9.1,1.1.4c.3.3.4.6.4,1s0,.4-.1.6c0,.2-.2.4-.4.5s-.5.2-.8.2-.5,0-.7-.3c-.2-.2-.3-.4-.4-.6-.3,0-.5.3-.7.6-.2.3-.3.7-.4,1,.4.4.8.8,1,1.4.2.5.4,1.1.4,1.7,0,.9-.3,1.7-.8,2.4-.5.7-1.2,1.3-2,1.7-.8.4-1.7.6-2.6.6s-.5,0-.7,0c-.2,0-.5,0-.8,0-.4,0-.8,0-1.1.3-.3.2-.4.4-.4.7,0,.3.3.6.9.7.5,0,1.3.2,2.4.2,1.2,0,2.3.2,3.2.5.9.2,1.6.6,2.1,1.1.5.5.7,1.2.7,2.2s-.2,1.3-.6,1.8c-.4.5-.9.9-1.5,1.3-.6.4-1.3.6-2.1.8-.8.2-1.5.3-2.3.3ZM68.7,29.1c1.2,0,2.1-.2,2.8-.7s1-.9,1-1.5-.2-.8-.5-1c-.3-.2-.7-.4-1.3-.6s-1.3-.2-2.1-.2c-.4,0-.8,0-1.2,0-.4,0-.9,0-1.2-.1-.3.2-.5.5-.7.8-.2.3-.2.7-.2,1,0,.7.3,1.2.9,1.7.6.4,1.5.6,2.6.6ZM68.4,19.5c.5,0,.9-.1,1.2-.4.3-.3.6-.6.7-1.1.2-.4.3-.9.3-1.4s0-1.2-.2-1.7c-.2-.6-.4-1-.7-1.3-.3-.4-.8-.5-1.3-.5s-1.3.3-1.7.9c-.4.6-.6,1.3-.6,2.1s0,1.2.3,1.8c.2.5.5,1,.8,1.3.4.3.8.5,1.2.5ZM81.8,24.4c-1.2,0-2.2-.3-3.1-.8-.9-.5-1.6-1.3-2.1-2.2-.5-1-.7-2.1-.7-3.4s.2-2.2.7-3.1c.5-1,1.2-1.8,2.1-2.4.9-.6,2-.9,3.2-.9s1.3,0,1.9.3c.6.2,1.2.5,1.7,1s.9,1,1.2,1.8c.3.7.4,1.6.4,2.7h-8.1c0,1.1.1,2,.3,2.8.2.8.6,1.4,1.2,1.8.5.4,1.2.6,2.1.6s.8,0,1.2-.2c.4-.1.9-.4,1.3-.6.4-.3.8-.6,1.2-1.1l.9.8c-.5.8-1.1,1.4-1.8,1.8-.6.4-1.3.7-1.9.8-.6.2-1.2.2-1.8.2ZM79.2,16h5c0-.6-.1-1.2-.3-1.6-.2-.4-.4-.8-.7-1-.3-.2-.7-.4-1.2-.4-.8,0-1.4.3-1.9.8-.5.5-.8,1.2-.9,2.2ZM93.5,24.1l-3.7-8.2c-.2-.5-.3-.8-.4-1.1,0-.3-.2-.5-.2-.7,0-.2,0-.4,0-.6h-.9s0-1.5,0-1.5h5.2v1.3c-.4,0-.6.1-.8.3-.1.2-.1.5,0,.8,0,.3.2.7.3,1l1.4,3.5c.1.3.3.6.4.9.1.3.2.6.4.9h0c.1-.3.2-.6.3-.9.1-.3.2-.6.3-1l1.3-3.7c.1-.4.3-.7.4-1,.1-.3.2-.5.4-.7h-1.5c0,0,0-1.5,0-1.5h4.3v1.3c-.4,0-.7.2-1,.5-.3.3-.5.7-.7,1.1-.2.4-.4.9-.6,1.3l-3.1,7.8h-1.7ZM107.2,24.4c-1.2,0-2.2-.3-3.1-.8-.9-.5-1.6-1.3-2.1-2.2-.5-1-.7-2.1-.7-3.4s.2-2.2.7-3.1c.5-1,1.2-1.8,2.1-2.4.9-.6,2-.9,3.2-.9s1.3,0,1.9.3c.6.2,1.2.5,1.7,1,.5.4.9,1,1.2,1.8.3.7.4,1.6.4,2.7h-8.1c0,1.1.1,2,.3,2.8.2.8.6,1.4,1.2,1.8.5.4,1.2.6,2.1.6s.8,0,1.2-.2c.4-.1.9-.4,1.3-.6.4-.3.8-.6,1.2-1.1l.9.8c-.5.8-1.1,1.4-1.8,1.8-.6.4-1.3.7-1.9.8-.6.2-1.2.2-1.8.2ZM104.5,16h5c0-.6-.1-1.2-.3-1.6-.2-.4-.4-.8-.7-1-.3-.2-.7-.4-1.2-.4-.8,0-1.4.3-1.9.8-.5.5-.8,1.2-.9,2.2ZM114.4,22.7c.5,0,.8,0,1-.3.2-.2.3-.5.4-.9,0-.4,0-.8,0-1.2v-4.5c0-.3,0-.6,0-.9,0-.3,0-.6,0-1-.3,0-.6,0-.9,0-.3,0-.6,0-.8,0v-1.5h.9c.6,0,1.2,0,1.6-.2.4-.2.7-.3.9-.5h1c0,.2,0,.5,0,.9,0,.4,0,.8,0,1.2.4-.5.8-.9,1.2-1.2.4-.4.8-.6,1.2-.8.4-.2.9-.3,1.3-.3s1,.1,1.3.4c.4.3.6.8.6,1.4s0,.4-.2.7c0,.2-.3.4-.5.6-.2.2-.5.2-.9.2s-.7-.1-1-.3c-.3-.2-.4-.6-.5-1.1-.3,0-.7.1-1.1.4-.4.3-.7.6-1,.9s-.5.7-.7,1.1v4.6c0,.3,0,.6,0,.9,0,.4,0,.7,0,1,.3,0,.5,0,.8,0,.3,0,.5,0,.7,0v1.5h-5.8v-1.3ZM126,10v-.9c0-.3,0-.7,0-1-.3,0-.6,0-.9,0-.3,0-.6,0-.8,0v-1.6c.7,0,1.3,0,1.8,0,.5,0,.8-.2,1.1-.3.3-.1.5-.2.6-.3h1.1v7.1c.5-.5,1.1-.8,1.6-1,.6-.2,1.2-.3,1.7-.3,1,0,1.9.2,2.6.7.8.5,1.4,1.2,1.8,2.1.4.9.6,2,.6,3.2s-.3,2.5-.8,3.5c-.5,1-1.2,1.8-2.1,2.4-.9.6-1.9.8-3.1.8s-1,0-1.7-.3c-.7-.2-1.3-.6-1.8-1.2l-.7,1.1h-1.2v-14ZM129,20.4c0,.6.1,1.1.3,1.5s.5.6.8.8c.3.1.7.2,1,.2.7,0,1.3-.2,1.8-.6.5-.4.8-1,1-1.7.2-.7.3-1.5.3-2.4s-.1-1.6-.3-2.4c-.2-.7-.5-1.3-1-1.7-.4-.4-1-.6-1.7-.6-.4,0-.8.1-1.2.3s-.7.5-1,.8v5.8ZM144.2,24.4c-.9,0-1.7-.2-2.3-.5-.6-.4-1-.9-1.3-1.7-.3-.8-.4-1.8-.4-3.1v-3.3c0-.3,0-.6,0-.9,0-.3,0-.7,0-1-.3,0-.5,0-.9,0-.3,0-.6,0-.8,0v-1.5h.4c.9,0,1.6,0,2-.2.5-.2.8-.3,1-.5h1.1v7.3c0,1.2.2,2,.5,2.6.3.6.8.8,1.5.8.5,0,1-.2,1.4-.4.5-.3.9-.6,1.2-1v-5.2c0-.3,0-.6,0-1,0-.4,0-.7,0-1-.3,0-.6,0-.9,0-.3,0-.6,0-.8,0v-1.5h.6c.7,0,1.3,0,1.8-.2.5-.2.8-.3,1-.5h1.1v8.6c0,.2,0,.6,0,1,0,.4,0,.8,0,1.2.3,0,.6,0,.9,0,.3,0,.6,0,.7,0v1.6h-4.2c0-.2,0-.4,0-.7,0-.2,0-.4,0-.6-.5.4-1.1.8-1.7,1.2-.6.3-1.3.5-2,.5ZM153.9,24v-1.3c.5,0,.8,0,1-.3.2-.2.3-.5.4-.9,0-.4,0-.8,0-1.2v-4.5c0-.3,0-.6,0-.9,0-.3,0-.6,0-1-.3,0-.6,0-.9,0-.3,0-.6,0-.8,0v-1.6c.7,0,1.3,0,1.8,0,.5,0,.8-.2,1.1-.3.3-.1.4-.2.6-.3h1c0,.2,0,.3,0,.4s0,.2,0,.4c0,.1,0,.3,0,.5.3-.3.7-.5,1.1-.7.4-.2.9-.4,1.3-.5.4-.1.8-.2,1.2-.2,1.4,0,2.5.4,3.1,1.3.6.8.9,2.2.9,4.1v3.6c0,.3,0,.6,0,.9,0,.4,0,.7,0,1,.3,0,.6,0,.8,0,.3,0,.5,0,.7,0v1.5h-5.8v-1.3c.5,0,.8,0,1-.3.2-.2.3-.5.4-.9,0-.4,0-.8,0-1.2v-3.4c0-1.2-.2-2-.6-2.6-.3-.6-.9-.9-1.7-.9-.5,0-.9.1-1.4.3-.4.2-.8.5-1.1.8,0,.2,0,.4,0,.6v5.4c0,.3,0,.6,0,.9,0,.4,0,.7,0,1,.3,0,.5,0,.8,0,.3,0,.6,0,.7,0v1.5h-5.8ZM173.7,24.4c-1,0-1.8-.2-2.6-.7s-1.3-1.2-1.8-2.1c-.4-.9-.6-2-.6-3.2s.3-2.4.8-3.5c.5-1,1.2-1.8,2.1-2.4.9-.6,2-.9,3.1-.9s.9,0,1.3.2c.4,0,.8.2,1.1.3v-3c0-.4,0-.7,0-1.1-.3,0-.6,0-.9,0-.3,0-.6,0-.8,0v-1.6c.7,0,1.3,0,1.8,0,.5,0,.8-.2,1.1-.3.3-.1.5-.2.6-.3h1.1v14.7c0,.2,0,.5,0,.9,0,.4,0,.7,0,1.1.3,0,.6,0,.8,0,.3,0,.6,0,.8,0v1.6h-4.2c0-.2,0-.4,0-.6,0-.2,0-.4,0-.6-.5.5-1,.9-1.6,1.2-.6.3-1.2.4-1.9.4ZM174.9,22.5c.4,0,.9-.1,1.3-.4.4-.3.8-.6,1-.9,0-.2,0-.4,0-.7v-6.9c-.2-.2-.5-.3-.9-.4-.4-.1-.7-.2-1.1-.2-.8,0-1.4.3-1.8.7-.5.4-.8,1-1,1.8-.2.7-.3,1.5-.3,2.4,0,.8.1,1.5.3,2.2.2.7.5,1.2.9,1.7.4.4,1,.6,1.7.6Z"/>
  <rect y="1" width="5" height="20.3"/>
  <rect class="st0" y="21.3" width="5" height="20.3"/>
  <rect class="st2" y="41.7" width="5" height="20.3"/>
</svg>